<svg xmlns="http://www.w3.org/2000/svg" version="1.1" xmlns:xlink="http://www.w3.org/1999/xlink" xmlns:svgjs="http://svgjs.dev/svgjs" width="2000" height="237" viewBox="0 0 2000 237"><g transform="matrix(1,0,0,1,-1.2121212121212466,0.9019980686293678)"><svg viewBox="0 0 396 47" data-background-color="#ffffff" preserveAspectRatio="xMidYMid meet" height="237" width="2000" xmlns="http://www.w3.org/2000/svg" xmlns:xlink="http://www.w3.org/1999/xlink"><g id="tight-bounds" transform="matrix(1,0,0,1,0.2400000000000091,-0.17887725411637234)"><svg viewBox="0 0 395.52 47.35775450823273" height="47.35775450823273" width="395.52"><g><svg viewBox="0 0 482.62921391373567 57.787813084112145" height="47.35775450823273" width="395.52"><g><rect width="5.185437433779439" height="57.787813084112145" x="68.34933293603102" y="0" fill="#000000" opacity="1" stroke-width="0" stroke="transparent" fill-opacity="1" class="rect-o-0" data-fill-palette-color="primary" rx="1%" id="o-0" data-palette-color="#000000"></rect></g><g transform="matrix(1,0,0,1,87.10921391373569,0.14375077881619802)"><svg viewBox="0 0 395.52 57.50031152647975" height="57.50031152647975" width="395.52"><g id="textblocktransform"><svg viewBox="0 0 395.52 57.50031152647975" height="57.50031152647975" width="395.52" id="textblock"><g><svg viewBox="0 0 395.52 57.50031152647975" height="57.50031152647975" width="395.52"><g transform="matrix(1,0,0,1,0,0)"><svg width="395.52" viewBox="3.5 -35 240.74000549316406 35" height="57.50031152647975" data-palette-color="#000000"><path d="M38.5-35L26-17.75 39.25 0 31 0 19.5-15.5 10.75-15.5 10.75 0 3.5 0 3.5-35 10.75-35 10.75-19.25 19-19.25 30.5-35 38.5-35ZM60-30.75L52.5-12.25 68-12.25 60.5-30.75 60-30.75ZM54.5-35L66-35 80.25 0 73.05 0 69.75-8.5 50.75-8.5 47.45 0 40.25 0 54.5-35ZM113-35L120.25-35 120.25 0 110.75 0 92-28.5 91.5-28.5 91.5 0 84.25 0 84.25-35 93.75-35 112.5-6.5 113-6.5 113-35ZM127.24 0L127.24-35 144.24-35Q148.09-35 150.92-34.33 153.74-33.65 155.59-32.43 157.44-31.2 158.34-29.5 159.24-27.8 159.24-25.75L159.24-25.75Q159.24-23.1 157.74-21.15 156.24-19.2 153.24-18.25L153.24-18.25Q156.99-17.5 159.12-15.33 161.24-13.15 161.24-9.75L161.24-9.75Q161.24-5.25 157.52-2.63 153.79 0 145.74 0L145.74 0 127.24 0ZM145.74-16L134.49-16 134.49-3.75 145.74-3.75Q149.49-3.75 151.49-5.25 153.49-6.75 153.49-9.75L153.49-9.75Q153.49-12.95 151.49-14.48 149.49-16 145.74-16L145.74-16ZM134.49-19.75L144.24-19.75Q151.49-19.75 151.49-25.75L151.49-25.75Q151.49-28.4 149.67-29.83 147.84-31.25 144.24-31.25L144.24-31.25 134.49-31.25 134.49-19.75ZM183.99-30.75L176.49-12.25 191.99-12.25 184.49-30.75 183.99-30.75ZM178.49-35L189.99-35 204.24 0 197.04 0 193.74-8.5 174.74-8.5 171.44 0 164.24 0 178.49-35ZM236.99-35L244.24-35 244.24 0 234.74 0 215.99-28.5 215.49-28.5 215.49 0 208.24 0 208.24-35 217.74-35 236.49-6.5 236.99-6.5 236.99-35Z" opacity="1" transform="matrix(1,0,0,1,0,0)" fill="#000000" class="wordmark-text-0" data-fill-palette-color="primary" id="text-0"></path></svg></g></svg></g></svg></g></svg></g><g transform="matrix(1,0,0,1,0,0.14375077881619802)"><svg viewBox="0 0 54.774889392105784 57.50031152647975" height="57.50031152647975" width="54.774889392105784"><g><svg xmlns="http://www.w3.org/2000/svg" xmlns:xlink="http://www.w3.org/1999/xlink" version="1.0" x="0" y="0" viewBox="10.225756645202637 8.246719360351562 79.5484848022461 83.50656127929688" enable-background="new 0 0 100 100" xml:space="preserve" height="57.50031152647975" width="54.774889392105784" class="icon-icon-0" data-fill-palette-color="accent" id="icon-0"><path d="M20.178 14.574c2.628 0 2.615 3.992 0 3.983-2.093-0.009-5.563-0.138-6.491 0.574l0.251 12.443 62.991-1.576c2.119-0.095 5.062-0.548 7.484-0.233-0.358-3.586-0.475-6.327-0.561-8.385-0.164-3.901-0.173-4.1-3.09-3.992-2.62 0.095-2.762-3.888-0.138-3.983 9.499-0.341 6.012 1.23 7.992 18.121 0.285 2.395 4.229 56.902-4.289 59.755-1.126 0.375-8.882 0.488-18.657 0.471-18.756-0.03-45.319-0.462-45.604-0.479-8.851-0.63-9.197-2.887-9.192-14.169 0-11.747-1.692-59.548 0.392-61.145C13.312 14.389 17.3 14.553 20.178 14.574zM14.02 35.557l0.837 41.547c-0.004 10.289-0.095 9.784 5.489 10.185 0.078 0.004 60.532 0.945 62.716 0.212 1.217-0.406 1.968-7.039 2.404-15.558 0.673-13.18 0.052-30.326-0.617-37.996-1.843-0.721-5.451-0.043-7.686 0.035L14.02 35.557z" fill="#000000" data-fill-palette-color="accent"></path><path d="M26.509 12.813c-0.324 0.099 0.06 8.938 1.317 8.921l4.263-0.445c0.22-0.423 0.354-1.239 0.475-2.503-1.066-0.79-1.148-2.689 0.156-3.392C32.534 13.262 31.196 13.245 26.509 12.813zM61.169 11.7c0.047-0.419 0.22-0.79 0.474-1.088 0.155-0.38 0.108-1.631 1.973-1.855 6.072-0.729 12.701-1.631 12.355 6.78-0.237 5.654-0.194 8.329-5.101 8.329-6.875 0-9.343-1.437-10.038-4.117-7.652-0.514-18.091-1.325-24.271-0.92-0.716 7.069-2.646 6.163-7.061 6.737-4.156 0.539-6.202-0.043-6.318-7.63l0.224-7.665c-0.017-1.101 0.859-2.007 1.96-2.024 1.454-0.022 0.967 0.552 1.981 0.643 7.764 0.703 9.499 0.863 9.455 5.93 6.465-0.345 16.326 0.406 23.905 0.919C60.819 14.518 61.005 13.167 61.169 11.7zM65.083 12.602c-0.716 5.921-1.713 7.268 5.787 7.267 0.854 0 0.867 1.545 1.118-4.488C72.148 11.497 68.82 12.166 65.083 12.602z" fill="#000000" data-fill-palette-color="accent"></path><path d="M26.047 40.386c1.498 0.898 0.682 2.784 0.613 3.906-0.134 2.166-0.194 5.321-0.207 8.838l7.842-0.207c0.043-3.414 0.138-6.448 0.31-8.597l-3.167 0.078c-2.62 0.065-2.719-3.919-0.095-3.983 11.424-0.276 23.123-0.242 34.4-0.919 5.429-0.324 10.863-1.083 10.699 4.73L75.98 71.511c0.246 9.676-1.152 9.999-13.176 9.684l-20.491 0.147c-8.623 0.414-17.712 0.855-18.993-2.352-0.078-0.194-0.35-4.523-0.574-10.241-1.01-0.725-1.057-2.391-0.117-3.189-0.095-2.948-0.168-6.102-0.198-9.163-0.898-0.803-0.721-2.097-0.009-2.857 0.009-4.773 0.164-9.046 0.579-11.54C23.316 40.101 24.943 39.726 26.047 40.386zM63.434 43.623c0.026 2.011 0.035 5.067 0.048 8.545l8.886 0.03c0.022-2.736 0.026-5.477 0.09-8.105C72.502 42.622 65.657 43.567 63.434 43.623zM63.447 56.13c-0.065 2.715-0.207 5.503-0.358 8.105l8.882-0.199 0.336-7.859L63.447 56.13zM62.843 68.227c-0.483 7.833 0.967 8.277 1.208 9.11 9.766 0.393 8.126 0.173 7.911-9.317L62.843 68.227zM60.387 77.199c-0.345-2.102-0.561-5.282-0.694-8.903l-7.674 0.172 0.268 8.589C55.459 77.057 58.135 77.121 60.387 77.199zM59.572 64.317c-0.06-2.671-0.086-5.446-0.104-8.105-2.201 0.065-4.898 0.16-7.828 0.259l0.254 8.018L59.572 64.317zM59.46 52.272c-0.004-3.47 0.004-6.512-0.013-8.55l-8.2 0.199L51.514 52.479 59.46 52.272zM48.303 77.117l-0.271-8.558-9.745 0.22c0.017 3.548 0.026 6.685 0.013 8.77C41.938 77.398 45.697 77.208 48.303 77.117zM47.906 64.576l-0.25-7.963c-3.12 0.108-6.357 0.216-9.417 0.298 0.004 2.564 0.017 5.265 0.031 7.885L47.906 64.576zM47.531 52.582l-0.272-8.562-8.89 0.216c-0.095 1.459-0.125 4.661-0.134 8.588L47.531 52.582zM34.316 77.7c0.017-2.184-0.004-5.313-0.026-8.83l-7.656 0.172c0.117 4.691 0.268 8.17 0.385 8.464C27.152 77.838 30.307 77.829 34.316 77.7zM34.269 64.886c-0.013-2.598-0.022-5.282-0.009-7.876-3.064 0.06-5.787 0.082-7.803 0.039 0.013 2.68 0.043 5.429 0.091 8.01L34.269 64.886z" fill="#000000" data-fill-palette-color="accent"></path></svg></g></svg></g></svg></g><defs></defs></svg><rect width="395.52" height="47.35775450823273" fill="none" stroke="none" visibility="hidden"></rect></g></svg></g></svg>